<svg version="1.1" xmlns="http://www.w3.org/2000/svg" xmlns:xlink="http://www.w3.org/1999/xlink" width="260.29" height="148.30001" viewBox="0,0,260.29,148.30001"><g transform="translate(-109.855,-105.85)"><g data-paper-data="{&quot;isPaintingLayer&quot;:true}" fill="#ffffff" fill-rule="nonzero" stroke="none" stroke-width="1" stroke-linecap="butt" stroke-linejoin="miter" stroke-miterlimit="10" stroke-dasharray="" stroke-dashoffset="0" style="mix-blend-mode: normal"><path d="M242.345,143.1c0,20.09 -15.64,35.76 -37.93,35.76c-21.54,0 -37.94,-16.29 -37.94,-36.38c0,-20.09 16.32,-36.63 37.13,-36.63c20.81,0 38.74,14.03 38.74,37.25zM204.225,119.75c-12.62,0 -23.22,9.98 -23.22,22.6c0,12.62 10.6,23.1 23.22,23.1c12.62,0 24.09,-9.86 24.09,-22.48c0,-12.63 -11.47,-23.22 -24.09,-23.22z"/><path d="M353.555,180.77c-21.06,0 -37.04,-17.55 -37.04,-37.33c0,-14.28 7.37,-25.17 18.84,-31.72c5.7,-3.26 11.59,-5.27 19.02,-5.27c1.99,0 7.31,0.24 11.76,1.99v15.51c-2.98,-1.06 -5.09,-2.46 -11,-2.46c-14.64,0.28 -23.81,11.98 -23.58,23.47c0.17,8.96 8.83,21.77 19.54,21.77v-10.83h-6.79v-13.46h21.94v36.52c-2.63,1 -7.43,1.82 -12.69,1.81z"/><path d="M305.165,128.19v50.64h-14.64v-50.64c0,-4.34 -2.91,-9.12 -10.5,-9.12c-6.1,0 -10.45,4.2 -10.45,9.12v50.64h-14.64v-50.64c0,-13.25 10.71,-22.32 24.56,-22.32c12.74,0 25.68,9.07 25.67,22.32z"/><path d="M155.145,128.66c0,14.57 -11.79,23.39 -22.54,23.39h-8.22v27.1h-14.53v-71.9h23.09c9.58,0 22.2,6.22 22.2,21.41zM134.995,120.26c-2.25,0 -10.27,0 -10.27,0v18.78h8.22c3.82,0 8.71,-4.99 8.71,-9.98c-0.01,-4.99 -4.41,-8.8 -6.66,-8.8z"/><path d="M242.345,218.1c0,20.09 -15.64,35.76 -37.93,35.76c-21.54,0 -37.94,-16.29 -37.94,-36.38c0,-20.09 16.32,-36.63 37.13,-36.63c20.81,0 38.74,14.03 38.74,37.25zM204.225,194.75c-12.62,0 -23.22,9.98 -23.22,22.6c0,12.62 10.6,23.1 23.22,23.1c12.62,0 24.09,-9.86 24.09,-22.48c0,-12.63 -11.47,-23.22 -24.09,-23.22z"/><path d="M132.055,182.25c0,0 13.04417,2.7721 14.42334,9.33334c5.68147,27.02891 -11.43867,48.07033 -11.43867,48.07033l19.58283,-0.00481l0.5225,14.50115l-42.53,-0.43333c0,0 29.53,-51.66666 18.78,-51.66666c-4.79467,0 -14.44697,10.3418 -14.44697,10.3418l-7.09303,-8.7318c0,0 12.62,-21.41 22.2,-21.41z" data-paper-data="{&quot;index&quot;:null}"/><path d="M282.055,182.25c0,0 13.04417,2.7721 14.42334,9.33334c5.68147,27.02891 -11.43867,48.07033 -11.43867,48.07033l19.58283,-0.0048l0.5225,14.50114l-42.53,-0.43333c0,0 29.53,-51.66666 18.78,-51.66666c-4.79467,0 -14.44697,10.3418 -14.44697,10.3418l-7.09303,-8.7318c0,0 12.62,-21.41 22.2,-21.41z" data-paper-data="{&quot;index&quot;:null}"/><path d="M347.055,182.25c0,0 13.04417,2.7721 14.42334,9.33334c5.68147,27.02891 -11.43867,48.07033 -11.43867,48.07033l19.58283,-0.0048l0.5225,14.50114l-42.53,-0.43333c0,0 29.53,-51.66666 18.78,-51.66666c-4.79467,0 -14.44697,10.3418 -14.44697,10.3418l-7.09303,-8.7318c0,0 12.62,-21.41 22.2,-21.41z" data-paper-data="{&quot;index&quot;:null}"/></g></g></svg>